<svg version="1.1" id="Layer_1" xmlns="http://www.w3.org/2000/svg" xmlns:xlink="http://www.w3.org/1999/xlink" x="0px" y="0px"
	 width="100%" viewBox="0 0 1024 1024" enable-background="new 0 0 1024 1024" xml:space="preserve">
<path fill="#000000" opacity="1.000000" stroke="none" 
	d="
M179.459793,617.061279 
	C173.253113,616.116821 167.444458,615.341003 162.059860,613.038757 
	C144.418335,605.496094 134.058380,592.131653 132.782547,572.998718 
	C130.077393,532.430908 131.841461,491.785553 131.867889,451.176758 
	C131.875839,438.970184 134.937637,427.089050 143.193176,417.286743 
	C153.216202,405.385803 166.663269,400.041260 181.551941,399.850555 
	C222.192520,399.330048 262.851044,399.250580 303.489319,399.864990 
	C328.164764,400.238068 347.430328,413.204224 352.733307,437.003510 
	C353.670013,441.207458 354.367889,445.459747 354.362793,449.825867 
	C354.317322,488.807312 354.359924,527.788879 354.332031,566.770386 
	C354.312775,593.672180 338.026093,612.390442 311.274078,616.390747 
	C306.985291,617.032043 302.691528,617.360168 298.346497,617.356262 
	C261.197510,617.322754 224.048416,617.350647 186.899353,617.344727 
	C184.569717,617.344360 182.240097,617.214783 179.459793,617.061279 
M186.110199,440.489868 
	C178.603516,444.983307 176.594040,452.500732 176.517883,460.262634 
	C176.217041,490.922028 176.155350,521.588074 176.456314,552.247253 
	C176.607803,567.680359 185.371643,575.666992 200.803635,575.672302 
	C228.299759,575.681763 255.795914,575.693726 283.292023,575.673340 
	C297.858673,575.662537 306.631531,566.908325 306.652435,552.370605 
	C306.679993,533.206604 306.899445,514.038147 306.539154,494.880981 
	C306.402313,487.603790 306.836761,481.037537 312.935730,476.062988 
	C313.926331,475.254974 314.565399,473.958191 315.217285,472.802887 
	C317.870544,468.100800 316.798340,462.825165 312.658203,459.915863 
	C308.856079,457.244080 305.192230,457.834320 301.328186,462.245697 
	C295.292542,469.136261 289.307953,476.083923 283.588928,483.237030 
	C270.067688,500.148865 256.758942,517.230530 243.271957,534.169922 
	C238.382050,540.311584 234.116776,540.380920 228.830002,534.626892 
	C220.602432,525.672241 212.413925,516.681458 204.255066,507.664093 
	C199.901169,502.852051 199.380020,496.672607 202.878296,492.811340 
	C206.711365,488.580536 212.524307,488.712555 218.015076,493.390320 
	C223.086258,497.710632 228.110062,502.101379 232.926727,506.699921 
	C235.749130,509.394501 237.657196,509.220123 240.216934,506.280212 
	C255.639099,488.567169 271.279236,471.043518 286.654175,453.290009 
	C289.332733,450.197113 294.090179,447.095734 291.997681,442.341980 
	C289.606262,436.909088 283.654419,437.507233 278.759369,437.480927 
	C251.930542,437.336731 225.100647,437.384125 198.271118,437.381989 
	C194.227737,437.381683 190.324707,438.047516 186.110199,440.489868 
z"/>
<path fill="#000000" opacity="1.000000" stroke="none" 
	d="
M675.349426,488.000122 
	C675.348694,512.165527 675.243713,535.831726 675.437256,559.495544 
	C675.474487,564.054504 674.144714,565.788025 669.510254,565.404419 
	C665.206543,565.048157 660.831543,565.072144 656.522461,565.392761 
	C651.979675,565.730774 649.972778,564.140137 650.628296,559.503601 
	C650.757874,558.586853 650.538208,557.620667 650.433533,555.935059 
	C643.787537,562.173096 636.792786,566.419373 628.223877,567.369934 
	C609.628235,569.432617 594.370361,561.253235 587.305054,543.946167 
	C579.368530,524.505066 579.562988,504.956024 590.597900,486.444244 
	C602.695557,466.149597 633.148865,464.504028 647.390564,478.219086 
	C647.970032,478.777130 648.719543,479.158600 650.288574,480.244141 
	C650.288574,465.476929 650.288574,451.464600 650.288574,437.028107 
	C658.797791,437.028107 666.543945,437.028107 675.349182,437.028107 
	C675.349182,453.712799 675.349182,470.606445 675.349426,488.000122 
M643.756226,542.287842 
	C654.208618,534.277466 653.621033,508.259094 647.433350,499.852661 
	C642.108948,492.619080 635.059204,489.411469 626.220764,490.451508 
	C618.159790,491.400055 613.045959,496.220337 610.083557,503.588684 
	C607.545654,509.901337 606.904602,516.502686 607.424561,523.179077 
	C609.107117,544.783630 625.900513,553.922546 643.756226,542.287842 
z"/>
<path fill="#000000" opacity="1.000000" stroke="none" 
	d="
M557.448608,557.507874 
	C540.568604,570.654602 518.564514,571.926086 500.619843,561.024841 
	C484.591034,551.287476 476.141724,530.559692 479.428375,510.192352 
	C482.931274,488.484955 495.202118,474.864471 516.615173,470.528992 
	C543.301086,465.125885 568.054260,480.449738 573.208923,507.871735 
	C576.786804,526.905090 572.690247,543.878906 557.448608,557.507874 
M547.809204,529.318787 
	C549.516113,519.857544 549.680908,510.526825 545.706482,501.479767 
	C538.977722,486.162750 517.818420,487.999725 511.072754,496.068481 
	C502.586884,506.218750 501.816376,529.271729 509.814484,539.807068 
	C515.313538,547.050659 522.897095,548.835266 531.185852,547.373596 
	C540.594910,545.714539 545.655457,539.220032 547.809204,529.318787 
z"/>
<path fill="#000000" opacity="1.000000" stroke="none" 
	d="
M872.465820,491.699158 
	C882.645264,511.849670 883.147278,531.746582 869.910095,549.948975 
	C857.852417,566.529419 840.088806,571.350952 820.570618,566.925598 
	C801.720215,562.651794 789.822632,550.278687 785.795105,531.191528 
	C783.540405,520.506104 783.851013,509.762482 787.528259,499.258850 
	C793.585510,481.956848 810.736816,469.964966 829.085510,469.568237 
	C847.522034,469.169617 862.097412,475.756134 872.465820,491.699158 
M816.774475,541.715820 
	C829.376709,553.125122 847.630920,548.284119 852.553711,532.051086 
	C855.679626,521.743103 855.601196,511.417419 850.932556,501.470215 
	C847.207397,493.533203 840.374329,489.921783 832.070862,489.790314 
	C823.474121,489.654236 816.026001,493.292755 813.012512,501.672668 
	C808.176514,515.121033 807.733521,528.642822 816.774475,541.715820 
z"/>
<path fill="#000000" opacity="1.000000" stroke="none" 
	d="
M737.371338,545.537537 
	C746.436401,542.221313 749.788025,535.742126 749.699341,526.763428 
	C749.536560,510.273010 749.782654,493.778076 749.566833,477.288818 
	C749.510010,472.948425 750.769714,471.279480 755.218628,471.578918 
	C760.193909,471.913788 765.210510,471.747009 770.205444,471.635223 
	C773.149597,471.569336 774.367188,472.679138 774.360596,475.722046 
	C774.298706,504.208160 774.307190,532.694519 774.363831,561.180664 
	C774.369690,564.119751 773.327332,565.436829 770.283264,565.348877 
	C765.622803,565.214294 760.939453,565.076294 756.295837,565.387634 
	C752.000244,565.675781 750.006226,564.287476 750.597778,559.806152 
	C750.790039,558.349426 750.627991,556.845947 750.627991,554.431213 
	C747.439331,556.846313 744.973694,558.886780 742.339111,560.678955 
	C731.353149,568.152405 719.451599,569.574768 707.175903,564.811157 
	C696.582458,560.700378 690.823425,552.153870 689.833618,541.105286 
	C687.884399,519.347412 689.071106,497.501526 688.899841,475.692596 
	C688.876221,472.687134 690.249756,471.577606 693.173096,471.642242 
	C698.334656,471.756378 703.513977,471.889954 708.660767,471.587830 
	C712.960144,471.335449 714.484131,472.720886 714.424866,477.205902 
	C714.198059,494.361237 714.332886,511.521454 714.352051,528.679871 
	C714.367065,542.140015 723.807007,549.199158 737.371338,545.537537 
z"/>
<path fill="#000000" opacity="1.000000" stroke="none" 
	d="
M486.947296,438.655670 
	C495.339081,438.693939 495.493317,438.697968 495.290558,446.447449 
	C495.166321,451.195648 497.415894,457.202728 494.109650,460.355377 
	C491.056183,463.267029 485.193085,461.127258 480.573517,461.270782 
	C475.249603,461.436188 469.903015,461.548889 464.592010,461.240631 
	C460.304138,460.991760 459.262390,462.741272 459.279236,466.752777 
	C459.407928,497.393951 459.352966,528.035889 459.343903,558.677612 
	C459.341949,565.312012 459.321014,565.317993 452.845978,565.334961 
	C448.849274,565.345398 444.852478,565.339355 440.855743,565.332031 
	C433.672974,565.318848 433.655396,565.316101 433.653656,558.313965 
	C433.646179,528.171814 433.652496,498.029724 433.647491,467.887604 
	C433.646393,461.330475 433.634552,461.318817 427.068878,461.306396 
	C418.242767,461.289734 409.414581,461.181244 400.591461,461.342285 
	C396.970551,461.408325 395.424347,460.163635 395.608765,456.443024 
	C395.814636,452.290100 395.876556,448.102997 395.585144,443.960022 
	C395.290131,439.765900 396.948944,438.553894 401.025635,438.579376 
	C424.838623,438.728333 448.653076,438.650604 472.467010,438.650208 
	C477.129883,438.650116 481.792755,438.653564 486.947296,438.655670 
z"/>
</svg>